<?xml version="1.0" encoding="utf-8"?>
<!-- Generator: Adobe Illustrator 16.2.0, SVG Export Plug-In . SVG Version: 6.00 Build 0)  -->
<!DOCTYPE svg PUBLIC "-//W3C//DTD SVG 1.1//EN" "http://www.w3.org/Graphics/SVG/1.1/DTD/svg11.dtd">
<svg version="1.1" id="Layer_1" xmlns="http://www.w3.org/2000/svg" xmlns:xlink="http://www.w3.org/1999/xlink" x="0px" y="0px"
	 width="285.623px" height="315.642px" viewBox="0 0 285.623 315.642" enable-background="new 0 0 285.623 315.642"
	 xml:space="preserve">
<path id="icon_5_" fill="white" d="M283.059,137.888l-52.937,4.919c-1.629,0.151-3.125-1.115-3.35-2.852
	c-0.229-1.72,0.901-3.243,2.533-3.396l52.934-4.921c1.631-0.148,3.127,1.117,3.354,2.854
	C285.821,136.228,284.69,137.739,283.059,137.888z M274.143,76.022l-47.881,23.446c-1.466,0.726-3.334-0.028-4.166-1.688
	c-0.83-1.646-0.313-3.563,1.159-4.286l47.882-23.463c1.467-0.711,3.319,0.045,4.147,1.688
	C276.12,73.366,275.604,75.297,274.143,76.022z M190.709,67.3c-1.129,1.178-3.137,1.104-4.479-0.149
	c-1.347-1.27-1.523-3.261-0.379-4.438l36.938-38.478c1.137-1.179,3.141-1.103,4.484,0.167c1.342,1.268,1.522,3.243,0.393,4.42
	L190.709,67.3z M143.754,58.547c-1.826,0.045-3.289-1.234-3.289-2.851l0.162-52.708c0-1.615,1.479-2.956,3.305-2.988
	c1.814-0.029,3.291,1.238,3.291,2.854l-0.166,52.706C147.043,57.175,145.565,58.519,143.754,58.547z M96.477,65.88L60.659,27.251
	c-1.105-1.176-0.939-3.168,0.357-4.436c1.315-1.27,3.264-1.357,4.362-0.15l35.82,38.614c1.104,1.191,0.938,3.183-0.377,4.451
	C99.524,66.998,97.581,67.074,96.477,65.88z M66.133,97.783c-0.846,1.659-2.748,2.412-4.239,1.688L13.02,76.023
	c-1.511-0.727-2.035-2.657-1.191-4.304c0.846-1.643,2.762-2.397,4.254-1.688l48.877,23.463C66.45,94.22,66.977,96.136,66.133,97.783
	z M59.977,138.644c-0.238,1.841-1.767,3.196-3.425,3.047l-53.944-5.25c-1.658-0.167-2.81-1.781-2.578-3.621
	c0.227-1.841,1.75-3.2,3.408-3.05l53.944,5.252C59.042,135.171,60.206,136.801,59.977,138.644z M9.17,193.796l52.088-13.978
	c1.603-0.419,3.248,0.518,3.666,2.11c0.427,1.604-0.512,3.245-2.106,3.686l-52.09,13.975c-1.604,0.42-3.244-0.532-3.685-2.127
	C6.622,195.861,7.571,194.218,9.17,193.796z M143.842,87.762c34.738,0,62.906,28.188,62.906,62.952
	c0,8.739-1.777,17.036-4.979,24.601c-7.105,30.823-30.961,49.604-30.961,83.354l0,0c0,6.621-5.373,11.996-11.996,11.996
	c-7.728,0-18.438,0-29.955,0c-6.623,0-11.979-5.375-11.979-11.996l0,0c0-33.868-23.869-52.525-30.977-83.354
	c-3.203-7.563-4.98-15.86-4.98-24.601C80.92,115.949,109.092,87.762,143.842,87.762z M140.297,184.798
	c0,2.418,1.961,4.364,4.363,4.364c2.412,0,4.359-1.946,4.359-4.364v-28.351c0-2.414-1.947-4.361-4.359-4.361
	c-2.402,0-4.363,1.947-4.363,4.361V184.798z M127.215,184.798v-7.677c-7.909-5.508-13.1-14.67-13.1-25.036
	c0-16.869,13.688-30.54,30.545-30.54c16.867,0,30.539,13.671,30.539,30.54c0,10.366-5.178,19.528-13.084,25.036v7.677
	c11.678-6.245,19.631-18.542,19.631-32.712c0-20.476-16.598-37.088-37.086-37.088c-20.479,0-37.076,16.613-37.076,37.088
	C107.584,166.256,115.538,178.554,127.215,184.798z M121.346,273.648h45.013c2.487,0,4.494,2.021,4.494,4.495v0.046
	c0,2.489-2.006,4.495-4.494,4.495h-45.013c-2.477,0-4.495-2.006-4.495-4.495v-0.046C116.85,275.67,118.87,273.648,121.346,273.648z
	 M121.315,285.705h45.069c2.479,0,4.47,1.992,4.47,4.451c0,2.473-1.99,4.467-4.47,4.467h-45.069c-2.459,0-4.465-1.994-4.465-4.467
	C116.85,287.697,118.856,285.705,121.315,285.705z M143.842,315.642c-9.93,0-17.981-8.062-17.981-17.985h35.953
	C161.815,307.58,153.77,315.642,143.842,315.642z M228.405,180.756l51.09,14.757c1.557,0.453,2.494,2.202,2.066,3.896
	c-0.422,1.688-2.021,2.686-3.593,2.229l-51.073-14.753c-1.568-0.453-2.509-2.189-2.084-3.882
	C225.233,181.313,226.833,180.304,228.405,180.756z"/>
</svg>
